HIERARCHY
ROOT reference
{
  OFFSET 0 0 0
  CHANNELS 6 Xposition Yposition Zposition Zrotation Xrotation Yrotation
  JOINT Hips
  {
    OFFSET -5.58457 84.7316 98.8742
    CHANNELS 6 Xposition Yposition Zposition Zrotation Xrotation Yrotation
    JOINT Spine
    {
      OFFSET 0 7.59534 0
      CHANNELS 6 Xposition Yposition Zposition Zrotation Xrotation Yrotation
      JOINT Spine1
      {
        OFFSET 0 23.5015 0
        CHANNELS 6 Xposition Yposition Zposition Zrotation Xrotation Yrotation
        JOINT Neck
        {
          OFFSET 0 23.405 2.12773
          CHANNELS 6 Xposition Yposition Zposition Zrotation Xrotation Yrotation
          JOINT Head
          {
            OFFSET 0 12.9677 -1.85252
            CHANNELS 6 Xposition Yposition Zposition Zrotation Xrotation Yrotation
            End Site
            {
              OFFSET 0 23.1565 0
            }
          }
        }
        JOINT LeftShoulder
        {
          OFFSET 3.62206 22.4732 -0.132728
          CHANNELS 6 Xposition Yposition Zposition Zrotation Xrotation Yrotation
          JOINT LeftArm
          {
            OFFSET 8.17784 0 0
            CHANNELS 6 Xposition Yposition Zposition Zrotation Xrotation Yrotation
            JOINT LeftForeArm
            {
              OFFSET 30.104 0 0
              CHANNELS 6 Xposition Yposition Zposition Zrotation Xrotation Yrotation
              JOINT LeftHand
              {
                OFFSET 24.4664 0 0
                CHANNELS 6 Xposition Yposition Zposition Zrotation Xrotation Yrotation
                End Site
                {
                  OFFSET 13.8939 0 0
                }
              }
            }
          }
        }
        JOINT RightShoulder
        {
          OFFSET -3.6336 22.4732 -0.132728
          CHANNELS 6 Xposition Yposition Zposition Zrotation Xrotation Yrotation
          JOINT RightArm
          {
            OFFSET -8.17784 0 0
            CHANNELS 6 Xposition Yposition Zposition Zrotation Xrotation Yrotation
            JOINT RightForeArm
            {
              OFFSET -30.104 0 0
              CHANNELS 6 Xposition Yposition Zposition Zrotation Xrotation Yrotation
              JOINT RightHand
              {
                OFFSET -24.4664 0 0
                CHANNELS 6 Xposition Yposition Zposition Zrotation Xrotation Yrotation
                End Site
                {
                  OFFSET -13.8939 0 0
                }
              }
            }
          }
        }
      }
    }
    JOINT LeftUpLeg
    {
      OFFSET 9.26261 0 0
      CHANNELS 6 Xposition Yposition Zposition Zrotation Xrotation Yrotation
      JOINT LeftLeg
      {
        OFFSET 0 -35.4897 0
        CHANNELS 6 Xposition Yposition Zposition Zrotation Xrotation Yrotation
        JOINT LeftFoot
        {
          OFFSET 0 -38.2023 0
          CHANNELS 6 Xposition Yposition Zposition Zrotation Xrotation Yrotation
          JOINT LeftToeBase
          {
            OFFSET 0 -6.0207 13.8939
            CHANNELS 6 Xposition Yposition Zposition Zrotation Xrotation Yrotation
            End Site
            {
              OFFSET 0 0 3.70504
            }
          }
        }
      }
    }
    JOINT RightUpLeg
    {
      OFFSET -9.26261 0 0
      CHANNELS 6 Xposition Yposition Zposition Zrotation Xrotation Yrotation
      JOINT RightLeg
      {
        OFFSET 0 -35.4897 0
        CHANNELS 6 Xposition Yposition Zposition Zrotation Xrotation Yrotation
        JOINT RightFoot
        {
          OFFSET 0 -38.2023 0
          CHANNELS 6 Xposition Yposition Zposition Zrotation Xrotation Yrotation
          JOINT RightToeBase
          {
            OFFSET 0 -6.0207 13.8939
            CHANNELS 6 Xposition Yposition Zposition Zrotation Xrotation Yrotation
            End Site
            {
              OFFSET 0 0 3.70504
            }
          }
        }
      }
    }
  }
}
MOTION
Frames:	8
Frame Time:	0.004
0 0 0 0 0 -0 -22.5355 75.3603 -223.65 0.155546 -0.165147 -2.29644 0 7.59534 2.84217e-014 0.208568 -7.74884 0.116954 0 23.5015 0 1.014 0.517208 0.0940628 0 23.405 2.12773 -3.65977 25.4116 -3.18352 -7.10543e-015 12.9677 -1.85252 1.75054 3.18756 -3.42533 3.62206 22.4732 -0.132728 11.6603 1.72861 14.9981 8.17784 -2.84217e-014 0 -19.5074 -4.62285 -3.1147 30.104 0 2.84217e-014 1.23727 -0.758832 -0.949665 24.4664 0 0 1.92752 -0.775406 -1.58519 -3.6336 22.4732 -0.132728 -7.57223 3.64863 15.8999 -8.17784 2.84217e-014 -2.84217e-014 16.5284 -8.08782 -6.62194 -30.104 0 0 -0.885681 -5.10499 0.847502 -24.4664 -2.84217e-014 0 -9.5253 -5.12423 0.267446 9.26261 0 0 2.79297 9.38983 -0.655797 0 -35.4897 -2.84217e-014 -0.919857 -6.5908 -1.50127 -3.55271e-015 -38.2023 2.84217e-014 -1.79777 -3.75419 15.3262 0 -6.0207 13.8939 2.48481e-017 0 1.59028e-015 -9.26261 -1.42109e-014 0 -3.34667 1.62346 -1.72433 -7.10543e-015 -35.4897 0 -1.35858 4.89404 -3.47914 0 -38.2023 0 5.2395 -6.26432 -2.16298 0 -6.0207 13.8939 1.11816e-016 1.49089e-016 3.18055e-015 
0 0 0 0 0 -0 -22.5355 75.3603 -223.65 0.155546 -0.165147 -2.29644 0 7.59534 2.84217e-014 0.208568 -7.74884 0.116954 0 23.5015 0 1.014 0.517208 0.0940628 0 23.405 2.12773 -3.63701 25.4181 -3.18369 0 12.9677 -1.85252 1.70472 3.18325 -3.42532 3.62206 22.4732 -0.132728 11.654 1.72413 15.0031 8.17784 0 0 -19.4938 -4.64739 -3.1161 30.104 0 2.84217e-014 1.23328 -0.741025 -0.949661 24.4664 0 0 1.91327 -0.757247 -1.58518 -3.6336 22.4732 -0.132728 -7.57138 3.63662 15.8997 -8.17784 -2.84217e-014 0 16.5334 -8.07365 -6.62171 -30.104 0 2.84217e-014 -0.886675 -5.105 0.836331 -24.4664 0 0 -9.50629 -5.12421 0.309727 9.26261 0 0 2.79387 9.37408 -0.662432 0 -35.4897 2.84217e-014 -0.916561 -6.59088 -1.47255 0 -38.2023 -2.84217e-014 -1.83843 -3.75419 15.3262 7.10543e-015 -6.0207 13.8939 4.96962e-017 0 -1.59028e-015 -9.26261 -1.42109e-014 0 -3.34722 1.61067 -1.71847 0 -35.4897 2.84217e-014 -1.3478 4.89919 -3.38352 0 -38.2023 0 5.26318 -6.25664 -2.2757 1.42109e-014 -6.0207 13.8939 -2.48481e-017 -4.96962e-017 1.59028e-015 
0 0 0 0 0 -0 -22.5355 75.3603 -223.65 0.155546 -0.165147 -2.29644 0 7.59534 2.84217e-014 0.208568 -7.74884 0.116954 0 23.5015 0 1.014 0.517208 0.0940628 -3.55271e-015 23.405 2.12773 -3.62031 25.4381 -3.18422 0 12.9677 -1.85252 1.69584 3.16418 -3.42525 3.62206 22.4732 -0.132728 11.6671 1.75054 14.9805 8.17784 0 2.84217e-014 -19.5 -4.70261 -3.09452 30.104 0 0 1.22236 -0.737722 -0.949661 24.4664 0 0 1.94434 -0.754396 -1.58518 -3.6336 22.4732 -0.132728 -7.55712 3.6441 15.8998 -8.17784 2.84217e-014 0 16.5184 -8.05933 -6.62038 -30.104 0 -2.84217e-014 -0.881336 -5.1029 0.826605 -24.4664 2.84217e-014 0 -9.48273 -5.12131 0.299428 9.26261 0 0 2.79845 9.38221 -0.689926 0 -35.4897 0 -0.917679 -6.59085 -1.48229 3.55271e-015 -38.2023 2.84217e-014 -1.82523 -3.75412 15.3298 0 -6.0207 13.8939 0 0 -3.18055e-015 -9.26261 -1.42109e-014 0 -3.34717 1.62797 -1.70166 -7.10543e-015 -35.4897 0 -1.34656 4.87606 -3.54806 0 -38.2023 2.84217e-014 5.24101 -6.23522 -2.14898 0 -6.0207 13.8939 3.72721e-017 9.93923e-017 4.77083e-015 
0 0 0 0 0 -0 -22.5355 75.3603 -223.651 0.155546 -0.165147 -2.29644 0 7.59534 2.84217e-014 0.208568 -7.74884 0.116954 0 23.5015 0 1.014 0.517208 0.0940628 0 23.405 2.12773 -3.63661 25.4355 -3.18415 0 12.9677 -1.85252 1.71483 3.17028 -3.42527 3.62206 22.4732 -0.132728 11.657 1.73119 14.9793 8.17784 0 2.84217e-014 -19.4964 -4.66466 -3.08884 30.104 0 -2.84217e-014 1.2385 -0.759018 -0.949665 24.4664 -2.84217e-014 0 1.96743 -0.775963 -1.58014 -3.6336 22.4732 -0.132728 -7.56474 3.62654 15.8995 -8.17784 -2.84217e-014 0 16.5303 -8.0532 -6.63145 -30.104 0 0 -0.987286 -4.93149 0.764878 -24.4664 0 -2.84217e-014 -8.82239 -4.96772 0.556652 9.26261 -1.42109e-014 2.84217e-014 2.79512 9.3766 -0.669897 0 -35.4897 0 -0.917139 -6.59087 -1.47758 0 -38.2023 0 -1.75907 -3.75364 15.3039 0 -6.0207 13.8939 2.48481e-017 -1.98785e-016 -3.18055e-015 -9.26261 -1.42109e-014 0 -3.34721 1.62213 -1.70648 7.10543e-015 -35.4897 0 -1.34507 4.88497 -3.47226 1.42109e-014 -38.2023 0 5.26347 -6.24272 -2.20378 0 -6.0207 13.8939 9.93923e-017 -4.96962e-017 -0 
0 0 0 0 0 -0 -22.5355 75.3603 -223.652 0.158392 -0.165147 -2.29644 0 7.59534 0 0.208568 -7.74884 0.116954 3.55271e-015 23.5015 0 1.014 0.517208 0.0940628 0 23.405 2.12773 -3.65274 25.4295 -3.18399 -7.10543e-015 12.9677 -1.85252 1.74001 3.1831 -3.42532 3.62206 22.4732 -0.132728 11.6611 1.72726 14.9902 8.17784 2.84217e-014 0 -19.4957 -4.67832 -3.09387 30.104 0 0 1.23894 -0.758104 -0.949665 24.4664 0 0 1.95853 -0.774651 -1.56979 -3.6336 22.4732 -0.132728 -7.55907 3.63722 15.8997 -8.17784 -2.84217e-014 0 16.5307 -8.04917 -6.62287 -30.104 0 -2.84217e-014 -0.992294 -4.93123 0.763653 -24.4664 2.84217e-014 2.84217e-014 -8.84066 -4.96697 0.549766 9.26261 1.42109e-014 -2.84217e-014 2.79264 9.36489 -0.655511 -3.55271e-015 -35.4897 -2.84217e-014 -0.920569 -6.58956 -1.50775 0 -38.2023 2.84217e-014 -1.79698 -3.77191 15.3247 -7.10543e-015 -6.0207 13.8939 -2.48481e-017 0 -0 -9.26261 0 0 -3.34668 1.60195 -1.74709 0 -35.4897 0 -1.35184 4.90317 -3.39513 0 -38.2023 2.84217e-014 5.25558 -6.29079 -2.23694 0 -6.0207 13.8939 8.69683e-017 -4.96962e-017 -1.59028e-015 
0 0 0 0 0 -0 -22.5355 75.3603 -223.654 0.15928 -0.165147 -2.29594 -3.55271e-015 7.59534 2.84217e-014 0.208589 -7.74808 0.117122 0 23.5015 0 1.01637 0.517208 0.0940628 0 23.405 2.12773 -3.64158 25.4274 -3.18394 0 12.9677 -1.85252 1.73135 3.18916 -3.42534 3.62206 22.4732 -0.132728 11.6679 1.74196 14.9912 8.17784 -2.84217e-014 2.84217e-014 -19.4949 -4.69324 -3.10276 30.104 2.84217e-014 0 1.23282 -0.764336 -0.945211 24.4664 0 -2.84217e-014 1.99359 -0.78094 -1.57793 -3.6336 22.4732 -0.132728 -7.55744 3.6379 15.8997 -8.17784 0 -2.84217e-014 16.5242 -8.02445 -6.61002 -30.104 0 2.84217e-014 -0.974457 -4.94054 0.743216 -24.4664 0 2.84217e-014 -8.89703 -4.97618 0.541002 9.26261 0 2.84217e-014 2.79512 9.37248 -0.670205 0 -35.4897 0 -0.92964 -6.6063 -1.4817 -3.55271e-015 -38.2023 0 -1.87532 -3.73291 15.3538 7.10543e-015 -6.0207 13.8939 -4.96962e-017 0 -0 -9.26261 0 2.84217e-014 -3.34764 1.60588 -1.70844 0 -35.4897 -2.84217e-014 -1.35117 4.89 -3.44089 0 -38.2023 0 5.24951 -6.23967 -2.2213 0 -6.0207 13.8939 -7.45443e-017 0 3.18055e-015 
0 0 0 0 0 -0 -22.5355 75.3603 -223.655 0.160221 -0.165147 -2.2964 3.55271e-015 7.59534 0 0.208594 -7.73742 0.11732 3.55271e-015 23.5015 0 1.01323 0.514875 0.0940628 3.55271e-015 23.405 2.12773 -3.6419 25.4457 -3.18442 7.10543e-015 12.9677 -1.85252 1.73827 3.17644 -3.42529 3.62206 22.4732 -0.132728 11.6693 1.72965 14.9972 8.17784 -2.84217e-014 0 -19.4921 -4.68579 -3.10457 30.104 2.84217e-014 2.84217e-014 1.2497 -0.770949 -0.942154 24.4664 2.84217e-014 0 1.98486 -0.787733 -1.55946 -3.6336 22.4732 -0.132728 -7.54517 3.63923 15.8997 -8.17784 0 0 16.5166 -8.04156 -6.62132 -30.104 2.84217e-014 0 -0.970664 -4.93334 0.766829 -24.4664 2.84217e-014 2.84217e-014 -8.87895 -4.96787 0.530065 9.26261 1.42109e-014 -2.84217e-014 2.79415 9.38169 -0.663579 0 -35.4897 2.84217e-014 -0.919711 -6.59125 -1.52199 0 -38.2023 -2.84217e-014 -1.8932 -3.7557 15.3728 0 -6.0207 13.8939 4.96962e-017 0 1.59028e-015 -9.26261 0 2.84217e-014 -3.34731 1.6231 -1.70183 0 -35.4897 0 -1.35101 4.88054 -3.48221 0 -38.2023 0 5.21409 -6.19321 -2.18897 0 -6.0207 13.8939 -6.21202e-018 4.96962e-017 3.18055e-015 
0 0 0 0 0 -0 -22.5355 75.3603 -223.657 0.161184 -0.165147 -2.29692 0 7.59534 0 0.208629 -7.73976 0.117543 0 23.5015 0 1.00911 0.512542 0.0940627 0 23.405 2.12773 -3.64585 25.4535 -3.18463 -7.10543e-015 12.9677 -1.85252 1.7342 3.16025 -3.42524 3.62206 22.4732 -0.132728 11.6599 1.72073 15.0198 8.17784 0 0 -19.489 -4.68554 -3.12498 30.104 0 0 1.24729 -0.772326 -0.941317 24.4664 -2.84217e-014 -2.84217e-014 2.00776 -0.789385 -1.55278 -3.6336 22.4732 -0.132728 -7.56062 3.64093 15.8997 -8.17784 0 2.84217e-014 16.5362 -8.01539 -6.62319 -30.104 0 2.84217e-014 -1.13516 -4.70109 0.633777 -24.4664 0 -2.84217e-014 -7.90582 -4.76063 0.955552 9.26261 1.42109e-014 0 2.794 9.37145 -0.66338 0 -35.4897 2.84217e-014 -0.931804 -6.59085 -1.49495 0 -38.2023 0 -1.87012 -3.75437 15.347 0 -6.0207 13.8939 2.48481e-017 -1.98785e-016 -0 -9.26261 -1.42109e-014 0 -3.34762 1.61308 -1.7014 0 -35.4897 0 -1.35346 4.88532 -3.47596 -1.42109e-014 -38.2023 0 5.21781 -6.24845 -2.18513 0 -6.0207 13.8939 1.2424e-017 0 -1.59028e-015 
